{"title":"American Reunion 720p (HD CAM)","uid":7210942,"size":3178796628,"categoryP":"video","categoryS":"hd___movies","magnet":"?xt=urn:btih:3659a6baa095669ecbc94bd42588596b6967f30e&amp;dn=American+Reunion+720p+%28HD+CAM%29&amp;tr=udp%3A%2F%2Ftracker.openbittorrent.com%3A80&amp;tr=udp%3A%2F%2Fopen.demonii.com%3A1337&amp;tr=udp%3A%2F%2Ftracker.coppersurfer.tk%3A6969&amp;tr=udp%3A%2F%2Fexodus.desync.com%3A6969","seeders":0,"leechers":1,"uploader":"Itzdannyboii","files":1,"time":1335234383,"description":"American Reunion 720p (HD CAM)\n\nGeneral\nComplete name                            : American Reunion 720p (HD CAM)American Reunion 720p (HD CAM).avi\nFormat                                   : AVI\nFormat/Info                              : Audio Video Interleave\nFormat profile                           : OpenDML\nFile size                                : 2.96 GiB\nDuration                                 : 1h 44mn\nOverall bit rate                         : 4 058 Kbps\n\nVideo\nID                                       : 0\nFormat                                   : MPEG-4 Visual\nFormat profile                           : Advanced Simple@L4\nFormat settings, BVOP                    : No\nFormat settings, QPel                    : No\nFormat settings, GMC                     : No warppoints\nFormat settings, Matrix                  : Default (H.263)\nCodec ID                                 : XVID\nCodec ID/Hint                            : XviD\nDuration                                 : 1h 44mn\nBit rate                                 : 3 915 Kbps\nWidth                                    : 1 280 pixels\nHeight                                   : 720 pixels\nDisplay aspect ratio                     : 16:9\nFrame rate                               : 29.970 fps\nColor space                              : YUV\nChroma subsampling                       : 4:2:0\nBit depth                                : 8 bits\nScan type                                : Progressive\nCompression mode                         : Lossy\nBits/(Pixel*Frame)                       : 0.142\nStream size                              : 2.86 GiB (96%)\n\nAudio\nID                                       : 1\nFormat                                   : MPEG Audio\nFormat version                           : Version 1\nFormat profile                           : Layer 3\nCodec ID                                 : 55\nCodec ID/Hint                            : MP3\nDuration                                 : 1h 44mn\nBit rate mode                            : Constant\nBit rate                                 : 128 Kbps\nChannel(s)                               : 2 channels\nSampling rate                            : 44.1 KHz\nCompression mode                         : Lossy\nStream size                              : 95.6 MiB (3%)\nAlignment                                : Split accross interleaves\nInterleave, duration                     : 26 ms (0.78 video frame)\n\n\nScreenshots &lt;a href=&quot;\nhttp://i1245.photobucket.com/albums/gg583/KingJames1984/AmericanReunionCAMFrame-5838.jpg&quot; rel=&quot;nofollow&quot; target=&quot;_NEW&quot;&gt;\nhttp://i1245.photobucket.com/albums/gg583/KingJames1984/AmericanReunionCAMFrame-5838.jpg&lt;/a&gt;\n &lt;a href=&quot;\nhttp://i1245.photobucket.com/albums/gg583/KingJames1984/AmericanReunionCAMFrame-136072.jpg&quot; rel=&quot;nofollow&quot; target=&quot;_NEW&quot;&gt;\nhttp://i1245.photobucket.com/albums/gg583/KingJames1984/AmericanReunionCAMFrame-136072.jpg&lt;/a&gt;\n &lt;a href=&quot;\nhttp://i1245.photobucket.com/albums/gg583/KingJames1984/AmericanReunionCAMFrame-30411.jpg&quot; rel=&quot;nofollow&quot; target=&quot;_NEW&quot;&gt;\nhttp://i1245.photobucket.com/albums/gg583/KingJames1984/AmericanReunionCAMFrame-30411.jpg&lt;/a&gt;\n &lt;a href=&quot;\nhttp://i1245.photobucket.com/albums/gg583/KingJames1984/AmericanReunionCAMFrame-47388.jpg&quot; rel=&quot;nofollow&quot; target=&quot;_NEW&quot;&gt;\nhttp://i1245.photobucket.com/albums/gg583/KingJames1984/AmericanReunionCAMFrame-47388.jpg&lt;/a&gt;\n &lt;a href=&quot;\nhttp://i1245.photobucket.com/albums/gg583/KingJames1984/AmericanReunionCAMFrame-48480.jpg&quot; rel=&quot;nofollow&quot; target=&quot;_NEW&quot;&gt;\nhttp://i1245.photobucket.com/albums/gg583/KingJames1984/AmericanReunionCAMFrame-48480.jpg&lt;/a&gt;\n\n\nEnjoy &amp; Leave Comments took me along time to do this torrent..","torrent":{"xt":"urn:btih:3659a6baa095669ecbc94bd42588596b6967f30e","amp;dn":"American+Reunion+720p+%28HD+CAM%29","amp;tr":["udp%3A%2F%2Ftracker.openbittorrent.com%3A80","udp%3A%2F%2Fopen.demonii.com%3A1337","udp%3A%2F%2Ftracker.coppersurfer.tk%3A6969","udp%3A%2F%2Fexodus.desync.com%3A6969"],"infoHash":"3659a6baa095669ecbc94bd42588596b6967f30e","infoHashBuffer":{"type":"Buffer","data":[54,89,166,186,160,149,102,158,203,201,75,212,37,136,89,107,105,103,243,14]},"announce":[],"urlList":[]}}